<svg width="60" height="52" viewBox="0 0 60 52" fill="none" xmlns="http://www.w3.org/2000/svg">
<path d="M0.857656 30.5882H4.15679V25.9471C4.15679 25.253 4.57516 24.8283 5.2565 24.8283C5.93784 24.8283 6.38012 25.253 6.38012 25.9471V30.5882H9.53581V25.9471C9.53581 25.253 9.95418 24.8283 10.6355 24.8283C11.3169 24.8283 11.7591 25.253 11.7591 25.9471V30.5882H15.0583V25.222C15.0583 23.5903 13.851 22.5285 12.0938 22.5285C10.7311 22.5285 9.63144 23.1708 9.32065 24.1446H9.22502C9.03377 23.1708 8.00578 22.5285 6.71481 22.5285C5.44178 22.5285 4.46758 23.15 4.08507 24.1446H3.98944V22.6321H0.857656V30.5882Z" fill="#5236FF"/>
<path d="M19.2435 30.7126C20.4388 30.7126 21.3413 30.3603 21.8971 29.4694H21.9688V30.5882H25.0528V25.1391C25.0528 23.668 23.4451 22.5285 20.8213 22.5285C18.078 22.5285 16.7273 23.7716 16.6137 25.222H19.6499C19.7276 24.7299 20.1459 24.4968 20.7735 24.4968C21.3472 24.4968 21.7537 24.7247 21.7537 25.1391V25.1598C21.7537 25.6208 21.1679 25.7658 19.626 25.8643C17.7313 25.9834 16.2551 26.6464 16.2551 28.392C16.2551 29.977 17.4863 30.7126 19.2435 30.7126ZM20.3193 28.91C19.7574 28.91 19.363 28.6717 19.363 28.2262C19.363 27.817 19.6977 27.5011 20.4627 27.3975C20.9886 27.325 21.4309 27.2317 21.7776 27.1074V27.7704C21.7776 28.4956 21.0663 28.91 20.3193 28.91Z" fill="#5236FF"/>
<path d="M26.6291 30.5882H29.9283V26.4444C29.9283 25.5328 30.6515 24.9319 31.6257 24.9319C31.9663 24.9319 32.5162 24.9785 32.8449 25.0769V22.6372C32.5819 22.5699 32.295 22.5285 32.0082 22.5285C31.028 22.5285 30.263 23.0257 29.9283 24.1446H29.8327V22.6321H26.6291V30.5882Z" fill="#5236FF"/>
<path d="M33.9267 30.5882H37.2258V28.3298L37.7219 27.786L39.5926 30.5882H43.3699L40.1544 26.1181L43.2742 22.6321H39.5687L37.3454 25.3048H37.2258V19.98H33.9267V30.5882Z" fill="#5236FF"/>
<path d="M48.1542 30.7333C50.7003 30.7333 52.3379 29.6766 52.6487 28.0191H49.6364C49.4452 28.4697 48.9013 28.7235 48.2259 28.7235C47.2457 28.7235 46.672 28.1641 46.672 27.3975V27.2732H52.6487V26.6102C52.6487 24.0772 50.8557 22.5285 48.0825 22.5285C45.2376 22.5285 43.4207 24.1653 43.4207 26.6309C43.4207 29.2052 45.2137 30.7333 48.1542 30.7333ZM46.672 25.6985C46.6899 25.0096 47.3473 24.5382 48.1542 24.5382C48.973 24.5382 49.5946 25.0148 49.6125 25.6985H46.672Z" fill="#5236FF"/>
<path d="M59.4696 22.6321H57.8917V20.7259H54.5926V22.6321H53.4212V24.704H54.5926V28.2988C54.5687 29.9667 55.758 30.811 58.0352 30.7022C58.7822 30.6659 59.3381 30.5313 59.6369 30.4536L59.1588 28.4438C59.0333 28.4697 58.7105 28.5267 58.5133 28.5267C58.083 28.5267 57.8917 28.3609 57.8917 28.0294V24.704H59.4696V22.6321Z" fill="#5236FF"/>
<path d="M0 12.2353C0 5.47793 6.32069 0 14.1176 0H28.2353V18.3529H0V12.2353Z" fill="#5236FF"/>
<path d="M60 18.3529H31.7647V0H60V18.3529Z" fill="#5236FF"/>
<path d="M31.7647 33.6471H60V39.7647C60 46.5221 53.6793 52 45.8824 52H31.7647V33.6471Z" fill="#5236FF"/>
<path d="M0 33.6471H28.2353V52H0V33.6471Z" fill="#5236FF"/>
</svg>
